<?xml version="1.0" encoding="UTF-8"?>
<svg width="250px" height="68px" viewBox="0 0 250 68" version="1.1" xmlns="http://www.w3.org/2000/svg" xmlns:xlink="http://www.w3.org/1999/xlink">
    <!-- Generator: Sketch 53.2 (72643) - https://sketchapp.com -->
    <title>bg-torn</title>
    <desc>Created with Sketch.</desc>
    <g id="Page-1" stroke="none" stroke-width="1" fill="none" fill-rule="evenodd">
        <g id="bg-torn" fill="#EDECE4" fill-rule="nonzero">
            <path d="M250,2.36364184 C246.527181,1.80481549 242.996381,9.28093226 239.570546,8.69216878 C233.011776,12.5277496 229.898834,12.8071627 221.906552,10.3169382 C221.332747,10.4049352 220.549013,10.4457586 219.972209,10.6290101 C217.124178,11.5507107 214.392107,11.933543 211.600056,11.8618753 C208.849991,10.428522 205.949977,11.5389172 202.877022,10.3613903 C200.486834,11.4354981 198.156627,7.79586938 195.642482,8.53068974 C193.20731,6.71631849 190.620189,8.29663585 188.105044,7.04199813 C185.563908,6.6773095 183.053762,4.91555501 180.486635,5.71659992 C178.760222,6.77619274 177.033809,3.44500711 175.14645,5.41087837 C173.237099,8.09886938 171.423716,7.87388735 169.840254,5.09699214 C166.579363,3.38513286 163.303477,6.27633346 160.184537,4.38666579 C157.046604,3.14200711 153.778715,6.32350711 150.542815,4.88652507 C147.251934,5.26935741 143.924066,5.56782148 140.605194,5.46077358 C137.247336,6.65462986 133.974449,4.98450112 130.684567,5.12511489 C127.404682,4.88198914 124.199772,3.47857298 121.043845,2.9088604 C119.268449,2.92609693 116.85227,2.3092107 114.771978,1.8674113 C112.514745,1.87829753 110.271508,1.99895322 108.026271,2.12868076 C105.780035,2.25840831 103.534798,2.39811489 101.277566,2.44619573 C96.3092549,2.54870771 91.5938581,2.81904902 86.5085871,1.37571669 C82.9977808,0.38144124 77.4916528,-1.26056475 74.0238319,1.61612088 C71.3807306,3.77250112 68.673651,3.90495022 64.9329228,2.43349513 C64.0302297,2.09057896 62.6457005,2.12142328 61.6110522,1.98897417 C56.5047884,6.2926628 56.5047884,6.2926628 47.2779255,1.80572268 C44.5548514,2.11144423 41.7667993,2.81904902 38.9787472,2.59043825 C36.1497091,3.78520172 33.3506608,3.16740831 30.5955975,1.29588435 C29.9238259,0.825962198 28.7012416,0.465809503 27.7455665,1.10446819 C24.7245936,1.92909992 21.664634,3.97661789 18.7406282,1.61339932 C15.7266529,2.15408196 12.7026811,3.0476598 9.73968851,2.09420771 C7.35050083,1.9871598 4.9903033,0.721635851 2.53913669,2.41353705 C1.7044205,1.90006998 0.854709399,1.90188435 0,2.06064184 L0,68 L250,68 L250,2.36364184 Z" id="Fill-1"></path>
        </g>
    </g>
</svg>